<?xml version="1.0" standalone="no"?>
<!DOCTYPE svg PUBLIC "-//W3C//DTD SVG 20010904//EN"
 "http://www.w3.org/TR/2001/REC-SVG-20010904/DTD/svg10.dtd">
<svg version="1.0" xmlns="http://www.w3.org/2000/svg"
 width="70.000000pt" height="70.000000pt" viewBox="0 0 70.000000 70.000000"
 preserveAspectRatio="xMidYMid meet">
<metadata>
Created by potrace 1.14, written by Peter Selinger 2001-2017
</metadata>
<g transform="translate(0.000000,70.000000) scale(0.100000,-0.100000)"
fill="#000000" stroke="none">
<path d="M273 520 c-57 -35 -70 -90 -30 -136 17 -19 43 -32 92 -44 84 -21 108
-47 76 -79 -40 -40 -117 -19 -141 38 -10 26 -14 27 -36 17 -69 -32 23 -136
120 -136 41 1 112 33 125 58 31 59 -2 133 -66 147 -112 25 -145 52 -104 86 31
26 66 18 105 -22 16 -18 34 -28 43 -25 8 3 17 6 19 6 14 0 0 50 -18 67 -53 48
-129 58 -185 23z"/>
</g>
</svg>
